<svg id="status-error" xmlns="http://www.w3.org/2000/svg" viewBox="0 0 16 16"><defs><style>.cls-1{fill:#df3312;}</style></defs><title>status-error</title><path class="cls-1" d="M8,0A7.99984,7.99984,0,0,0,2.34326,13.65674,7.99984,7.99984,0,1,0,13.65674,2.34326,7.94551,7.94551,0,0,0,8,0Zm4.24268,12.24268A6.00019,6.00019,0,1,1,14,8,5.96086,5.96086,0,0,1,12.24268,12.24268Z"/><polygon class="cls-1" points="10.122 4.464 8 6.586 5.878 4.464 4.464 5.878 6.586 8 4.464 10.122 5.878 11.536 8 9.414 10.122 11.536 11.536 10.122 9.414 8 11.536 5.878 10.122 4.464"/></svg>